<?xml version="1.0" encoding="UTF-8" standalone="no"?>
<!-- Created with Inkscape (http://www.inkscape.org/) -->

<svg
   width="6.6000004mm"
   height="7.2999997mm"
   viewBox="0 0 6.6000004 7.2999997"
   version="1.1"
   id="svg5"
   xml:space="preserve"
   inkscape:version="1.2.2 (b0a84865, 2022-12-01)"
   sodipodi:docname="icons.svg"
   inkscape:export-filename="element_icons/earth.svg"
   inkscape:export-xdpi="94.342857"
   inkscape:export-ydpi="94.342857"
   xmlns:inkscape="http://www.inkscape.org/namespaces/inkscape"
   xmlns:sodipodi="http://sodipodi.sourceforge.net/DTD/sodipodi-0.dtd"
   xmlns="http://www.w3.org/2000/svg"
   xmlns:svg="http://www.w3.org/2000/svg"><sodipodi:namedview
     id="namedview7"
     pagecolor="#505050"
     bordercolor="#eeeeee"
     borderopacity="1"
     inkscape:showpageshadow="0"
     inkscape:pageopacity="0"
     inkscape:pagecheckerboard="0"
     inkscape:deskcolor="#505050"
     inkscape:document-units="mm"
     showgrid="false"
     inkscape:zoom="2.6747791"
     inkscape:cx="158.70469"
     inkscape:cy="93.091799"
     inkscape:window-width="1440"
     inkscape:window-height="900"
     inkscape:window-x="0"
     inkscape:window-y="0"
     inkscape:window-maximized="0"
     inkscape:current-layer="g699" /><defs
     id="defs2"><clipPath
       clipPathUnits="userSpaceOnUse"
       id="clipPath2511"><rect
         style="fill:none;stroke-width:0.264583"
         id="rect2513"
         width="7"
         height="7"
         x="0"
         y="1.110223e-16"
         inkscape:label="earth" /></clipPath></defs><g
     inkscape:label="earth"
     inkscape:groupmode="layer"
     id="g699"
     style="display:inline"
     transform="translate(-0.39999999,0.3)"><path
       style="fill:#000000;stroke-width:0.0846667"
       d="m 32.825295,37.56095 c 0,-0.43777 0.52893,-1.33656 0.69111,-1.17438 0.15446,0.15447 -0.31142,1.29009 -0.52926,1.29009 -0.089,0 -0.16185,-0.0521 -0.16185,-0.11571 z m 1.74011,0.0382 c -0.0828,-0.13406 0.40489,-1.23486 0.54714,-1.23486 0.19715,0 0.1876,0.21955 -0.0332,0.76305 -0.19517,0.4804 -0.39516,0.664 -0.51394,0.47181 z m 1.70933,-0.0284 c -0.055,-0.1616 0.41653,-1.2065 0.54444,-1.2065 0.16233,0 0.12085,0.4315 -0.0875,0.91017 -0.16722,0.38421 -0.38009,0.52225 -0.45695,0.29633 z m -15.133439,-0.1275 c 0,-0.26964 0.398988,-1.16191 0.531634,-1.18891 0.222297,-0.0453 0.21803,0.19609 -0.01327,0.75042 -0.224678,0.53846 -0.518366,0.7869 -0.518366,0.43849 z m 1.732749,0.0594 c -0.0633,-0.10248 0.26798,-0.99196 0.4384,-1.17698 0.27913,-0.30304 0.32142,0.0543 0.0794,0.67115 -0.21796,0.55554 -0.38577,0.71947 -0.51781,0.50583 z m 1.71734,-0.0164 c -0.0634,-0.18973 0.40399,-1.20427 0.56952,-1.23627 0.13121,-0.0254 0.14701,0.0122 0.10671,0.254 -0.11721,0.70313 -0.55637,1.34105 -0.67623,0.98227 z m 17.88591,-0.0302 c 0,-0.0862 -0.0466,-0.11819 -0.127,-0.0873 -0.18944,0.0727 -0.381,-0.0284 -0.381,-0.20108 0,-0.11609 -0.0453,-0.14066 -0.1905,-0.10326 -0.17588,0.0453 -0.18075,0.0372 -0.0635,-0.10636 0.0968,-0.11849 0.10183,-0.16392 0.0212,-0.19107 -0.13026,-0.0438 -0.13849,-0.29366 -0.0138,-0.41835 0.0663,-0.0663 0.0663,-0.10797 0,-0.14893 -0.15434,-0.0954 -0.10253,-0.23872 0.07,-0.19361 0.11229,0.0294 0.17571,-0.01 0.20658,-0.12797 0.0341,-0.13034 0.0954,-0.16061 0.2613,-0.1289 0.14671,0.028 0.21676,0.004 0.21676,-0.0738 0,-0.0634 0.0381,-0.11526 0.0847,-0.11526 0.0466,0 0.0847,0.0519 0.0847,0.11526 0,0.078 0.07,0.10186 0.21676,0.0738 0.16861,-0.0322 0.22717,-0.002 0.26363,0.13779 0.0258,0.0986 0.0806,0.15835 0.12191,0.13284 0.15527,-0.096 0.27471,0.0707 0.12771,0.1782 -0.12463,0.0911 -0.12622,0.11024 -0.0128,0.15375 0.15554,0.0597 0.17293,0.36494 0.0237,0.41518 -0.0811,0.0273 -0.0768,0.0708 0.0185,0.18615 0.11228,0.13597 0.10818,0.14736 -0.0423,0.1177 -0.10421,-0.0205 -0.20032,0.0313 -0.25653,0.1384 -0.0554,0.10549 -0.16102,0.1635 -0.27516,0.15107 -0.11664,-0.0127 -0.18529,0.0265 -0.18529,0.10583 0,0.0693 -0.0381,0.12601 -0.0847,0.12601 -0.0466,0 -0.0847,-0.0612 -0.0847,-0.13606 z m -0.0935,-0.3647 c 0.0692,-0.0438 0.0951,-0.13498 0.0625,-0.2199 -0.0453,-0.11795 -0.0792,-0.12553 -0.18167,-0.0405 -0.24078,0.19982 -0.13841,0.42352 0.11917,0.26041 z m 0.6015,-0.0392 c 0,-0.17129 -0.22395,-0.33915 -0.2963,-0.22209 -0.0837,0.13542 0.0163,0.33872 0.16664,0.33872 0.0713,0 0.12966,-0.0525 0.12966,-0.11663 z m -0.74989,-0.58246 c -0.0438,-0.0438 -0.16689,-0.0521 -0.27341,-0.0183 -0.18526,0.0588 -0.18686,0.0665 -0.0366,0.17631 0.17922,0.13106 0.45737,-0.0107 0.31005,-0.15805 z m 0.96995,0.004 c -0.21644,-0.12113 -0.43842,-0.0168 -0.30537,0.14353 0.08,0.0964 0.14206,0.10336 0.27707,0.0311 0.16016,-0.0857 0.16241,-0.0996 0.0283,-0.17464 z m -0.55873,0.10198 c 0,-0.0466 -0.0381,-0.0847 -0.0847,-0.0847 -0.0466,0 -0.0847,0.0381 -0.0847,0.0847 0,0.0466 0.0381,0.0847 0.0847,0.0847 0.0466,0 0.0847,-0.0381 0.0847,-0.0847 z m -0.16933,-0.36407 c 0,-0.122 -0.16542,-0.31327 -0.27093,-0.31327 -0.11035,0 -0.0771,0.32079 0.0381,0.36726 0.17983,0.0726 0.23283,0.0603 0.23283,-0.054 z m 0.37408,0.0587 c 0.0737,-0.0283 0.13392,-0.12759 0.13392,-0.22072 0,-0.11962 -0.0393,-0.15425 -0.13392,-0.11794 -0.0737,0.0283 -0.14986,0.0514 -0.16934,0.0514 -0.0195,0 -0.0354,0.0762 -0.0354,0.16933 0,0.18645 0.0105,0.19249 0.20475,0.11794 z m 2.05367,1.2023 c -0.0302,-0.0786 -0.10295,-0.13655 -0.16178,-0.12884 -0.23481,0.0307 -0.31864,-0.0133 -0.31864,-0.16747 0,-0.11972 -0.0437,-0.14997 -0.16933,-0.11713 -0.18391,0.0481 -0.23598,-0.0996 -0.0635,-0.18007 0.0847,-0.0395 0.0847,-0.0593 0,-0.0988 -0.13028,-0.0608 -0.13816,-0.30776 -0.0138,-0.43212 0.0663,-0.0663 0.0663,-0.10797 0,-0.14893 -0.15882,-0.0982 -0.10013,-0.23021 0.0773,-0.1739 0.134,0.0425 0.16933,0.0152 0.16933,-0.1309 0,-0.15701 0.038,-0.17907 0.254,-0.14737 0.17333,0.0254 0.254,0.002 0.254,-0.0751 0,-0.0618 0.0381,-0.11233 0.0847,-0.11233 0.0466,0 0.0847,0.0491 0.0847,0.10917 0,0.0635 0.0975,0.10777 0.23283,0.10583 0.17265,-0.002 0.22967,0.0357 0.2206,0.1477 -0.009,0.11171 0.0295,0.13778 0.14816,0.10013 0.17167,-0.0545 0.22265,0.0814 0.0667,0.17775 -0.0653,0.0404 -0.0589,0.0795 0.0212,0.12891 0.15282,0.0944 0.15329,0.25584 0.001,0.43701 -0.0811,0.0967 -0.0904,0.14816 -0.0265,0.14816 0.0538,0 0.0978,0.0381 0.0978,0.0847 0,0.0466 -0.0785,0.0847 -0.17433,0.0847 -0.0959,0 -0.15345,0.0338 -0.12793,0.0751 0.0656,0.1061 -0.17892,0.29016 -0.29233,0.22007 -0.0517,-0.0319 -0.1425,0.008 -0.20176,0.0893 -0.10037,0.13726 -0.11151,0.13757 -0.16257,0.005 z m -0.0806,-0.39922 c 0.0522,-0.0522 0.0757,-0.14509 0.0523,-0.20632 -0.0613,-0.15978 -0.28271,-0.0493 -0.28271,0.14103 0,0.18079 0.0896,0.20617 0.23045,0.0653 z m 0.53155,-0.0744 c 0,-0.0941 -0.0564,-0.16933 -0.127,-0.16933 -0.1289,0 -0.17368,0.1791 -0.0706,0.28222 0.10734,0.10734 0.19756,0.0558 0.19756,-0.11289 z m 0.27066,-0.53555 c -0.13686,-0.0611 -0.22073,-0.0563 -0.29388,0.0169 -0.15375,0.15375 0.0913,0.27947 0.31325,0.1607 0.1704,-0.0912 0.1702,-0.093 -0.0194,-0.1776 z m -0.948,0.11721 c 0,-0.0438 -0.0399,-0.10434 -0.0887,-0.1345 -0.12426,-0.0768 -0.35655,0.0255 -0.29265,0.12891 0.0666,0.10775 0.38137,0.11237 0.38137,0.006 z m 0.381,-0.005 c 0.0288,-0.0466 0.012,-0.0847 -0.0373,-0.0847 -0.0493,0 -0.0897,0.0381 -0.0897,0.0847 0,0.0466 0.0168,0.0847 0.0373,0.0847 0.0205,0 0.0609,-0.0381 0.0897,-0.0847 z m -0.24335,-0.55313 c -0.0262,-0.0683 -0.087,-0.12421 -0.13499,-0.12421 -0.12466,0 -0.1084,0.31725 0.0185,0.36125 0.1274,0.0442 0.18186,-0.0667 0.11648,-0.23704 z m 0.52435,0.0601 c 0.0202,-0.13727 -0.006,-0.17062 -0.10583,-0.13248 -0.15716,0.0603 -0.18348,0.40232 -0.027,0.35078 0.0582,-0.0192 0.11798,-0.1174 0.13283,-0.2183 z m 1.878,1.38304 c 0,-0.0793 -0.0687,-0.11852 -0.18528,-0.10583 -0.11602,0.0126 -0.21913,-0.0457 -0.27583,-0.156 -0.0498,-0.0969 -0.14394,-0.15837 -0.20921,-0.13661 -0.0822,0.0274 -0.10195,-0.004 -0.0642,-0.10235 0.0299,-0.078 0.007,-0.21891 -0.05,-0.31304 -0.0883,-0.14475 -0.0791,-0.18993 0.0599,-0.29299 0.0904,-0.067 0.11897,-0.12184 0.0635,-0.12184 -0.0555,0 -0.10085,-0.0612 -0.10085,-0.13606 0,-0.0819 0.0472,-0.11793 0.11866,-0.0905 0.072,0.0276 0.13659,-0.023 0.16424,-0.12879 0.0352,-0.1344 0.0952,-0.16483 0.26235,-0.13288 0.1467,0.028 0.21675,0.004 0.21675,-0.0738 0,-0.0634 0.0381,-0.11526 0.0847,-0.11526 0.0466,0 0.0847,0.0519 0.0847,0.11526 0,0.078 0.07,0.10186 0.21675,0.0738 0.16957,-0.0324 0.22715,-0.002 0.2645,0.14111 0.0346,0.13227 0.0915,0.16867 0.20658,0.13214 0.17502,-0.0555 0.21056,0.0447 0.0668,0.18851 -0.0663,0.0663 -0.0663,0.10797 0,0.14893 0.12562,0.0776 0.11637,0.3601 -0.0138,0.42084 -0.0847,0.0395 -0.0847,0.0593 0,0.0988 0.17248,0.0805 0.12041,0.22817 -0.0635,0.18007 -0.123,-0.0322 -0.16933,-0.003 -0.16933,0.10807 0,0.17268 -0.19156,0.27378 -0.381,0.20108 -0.0804,-0.0309 -0.127,10e-4 -0.127,0.0873 0,0.0748 -0.0381,0.13606 -0.0847,0.13606 -0.0466,0 -0.0847,-0.0567 -0.0847,-0.12601 z m 0.508,-0.41527 c 0,-0.23525 -0.23579,-0.36669 -0.31015,-0.1729 -0.0284,0.074 0.0184,0.18126 0.10903,0.24988 0.20645,0.15633 0.20112,0.15837 0.20112,-0.077 z m -0.55033,-0.0737 c 0,-0.20838 -0.14822,-0.19399 -0.22818,0.0222 -0.0541,0.14612 -0.0383,0.17616 0.0805,0.15329 0.0812,-0.0156 0.1477,-0.0946 0.1477,-0.17546 z m -0.19956,-0.50743 c -0.0439,-0.0438 -0.16689,-0.0521 -0.27341,-0.0183 -0.18526,0.0588 -0.18685,0.0665 -0.0366,0.17631 0.17923,0.13106 0.45737,-0.0107 0.31005,-0.15805 z m 0.41123,0.10643 c 0,-0.0466 -0.0381,-0.0847 -0.0847,-0.0847 -0.0466,0 -0.0847,0.0381 -0.0847,0.0847 0,0.0466 0.0381,0.0847 0.0847,0.0847 0.0466,0 0.0847,-0.0381 0.0847,-0.0847 z m 0.635,-0.0423 c 0,-0.0466 -0.0857,-0.0968 -0.1905,-0.11172 -0.13108,-0.0186 -0.1905,0.0162 -0.1905,0.11172 0,0.0955 0.0594,0.13034 0.1905,0.11173 0.10477,-0.0149 0.1905,-0.0652 0.1905,-0.11173 z m -0.80434,-0.37194 c 0,-0.0881 -0.0626,-0.1843 -0.13911,-0.21366 -0.18071,-0.0693 -0.1945,-0.0459 -0.10775,0.18344 0.0877,0.23174 0.24686,0.25123 0.24686,0.0302 z m 0.49273,-0.0792 c 0.0149,-0.10113 -0.009,-0.18387 -0.0531,-0.18387 -0.12987,0 -0.28976,0.23861 -0.22745,0.33943 0.0873,0.14132 0.25019,0.051 0.28059,-0.15556 z m -34.359392,1.11182 c 0,-0.099 0.07571,-0.42145 0.168241,-0.71664 0.253485,-0.80865 0.245871,-0.83305 -0.259963,-0.83305 -0.236714,0 -0.417689,-0.0305 -0.402166,-0.0677 0.781905,-1.87684 0.716436,-1.79492 1.434522,-1.79492 0.767985,0 0.765045,-0.005 0.371699,0.66587 -0.370929,0.6329 -0.376977,0.60413 0.127,0.60413 0.476322,0 0.503563,0.0398 0.232834,0.33995 -0.104775,0.11617 -0.472707,0.55393 -0.817625,0.9728 -0.885087,1.07485 -0.854542,1.04519 -0.854542,0.8296 z m 20.698542,-0.44129 c 0.089,-0.28028 0.38346,-1.3583 0.38346,-1.40366 0,-0.0239 -0.1905,-0.0434 -0.42334,-0.0434 -0.51159,0 -0.5091,0.0464 -0.0529,-0.9838 0.37048,-0.83654 0.37048,-0.83654 1.05833,-0.86113 0.79545,-0.0284 0.77568,-0.0575 0.39152,0.57493 -0.36982,0.6088 -0.37199,0.59266 0.0797,0.59266 0.55259,0 0.53931,0.0375 -0.42865,1.21029 -0.84355,1.02206 -1.12275,1.27521 -1.00814,0.91411 z m -11.76466,-0.0899 c -0.09003,-0.14567 0.41139,-1.22585 0.58452,-1.25919 0.1366,-0.0263 0.15191,0.009 0.11058,0.25324 -0.1168,0.69094 -0.524831,1.28145 -0.6951,1.00595 z m 1.73412,-0.0728 c 0,-0.52112 0.55516,-1.38123 0.71969,-1.11501 0.0567,0.0917 -0.24309,0.95276 -0.40524,1.16413 -0.12116,0.15794 -0.31445,0.12775 -0.31445,-0.0491 z m 1.73216,0.0493 c -0.0687,-0.17908 0.43894,-1.24906 0.59263,-1.24906 0.18354,0 0.16277,0.23058 -0.0731,0.81112 -0.19748,0.4861 -0.42687,0.67946 -0.51955,0.43794 z m 6.39584,-0.0948 c 0,-0.43792 0.52893,-1.33656 0.69118,-1.1743 0.15048,0.15047 -0.3224,1.29001 -0.53531,1.29001 -0.0857,0 -0.15587,-0.0521 -0.15587,-0.11571 z m 3.47528,-0.0748 c 0.006,-0.30742 0.37608,-1.12183 0.50927,-1.12183 0.20049,0 0.18415,0.31462 -0.043,0.82827 -0.219,0.49519 -0.47376,0.6556 -0.46626,0.29356 z m -35.48516582,-0.508 c -0.334569,-0.53298 -0.02657,-1.39133 0.5513,-1.53636 0.125619,-0.0315 0.224783,-0.1581 0.298235,-0.38067 0.24991502,-0.75725 0.97300702,-1.21736 1.86568302,-1.18716 0.410546,0.0139 0.654268,-0.0277 0.959519,-0.16368 0.666735,-0.29703 1.269512,-0.20501 1.848545,0.28222 0.169427,0.14256 0.355601,0.21292 0.563932,0.21314 1.051354,0.001 1.606907,1.3992 0.86617,2.17985 -0.150725,0.15884 -0.270717,0.1905 -0.722092,0.1905 -0.464586,0 -0.54885,0.0237 -0.594373,0.16712 -0.155394,0.4896 -0.275612,0.51021 -2.976697,0.51021 -2.48749302,0 -2.48749302,0 -2.66022202,-0.27517 z M 5.4116062,35.63694 c 0.568754,-0.76201 -0.02012,-1.77067 -1.033759,-1.77067 -0.289909,0 -0.408548,-0.0407 -0.48763,-0.16734 -0.5589,-0.89494 -2.381708,-0.52358 -2.607146,0.53115 -0.07363,0.34449 -0.185762,0.48286 -0.39129302,0.48286 -0.40842,0 -0.705596,0.62023 -0.490103,1.02288 0.158948,0.297 4.78256602,0.20574 5.00993102,-0.0989 z M 10.982188,35.0335 c -0.437361,-0.71705 -0.04119,-1.92923 0.630518,-1.92923 0.06462,0 0.160505,-0.13034 0.213081,-0.28965 0.457365,-1.38582 2.211877,-1.85303 3.370939,-0.89763 0.21686,0.17875 0.401432,0.25595 0.611951,0.25595 1.415446,0 2.103078,1.8826 1.066315,2.91936 -0.3357,0.33571 -1.297951,0.32165 -1.337209,-0.0195 -0.0228,-0.19818 -0.07089,-0.23688 -0.323123,-0.26003 -0.437477,-0.0402 -0.459449,-0.11576 -0.174232,-0.59949 0.36506,-0.61915 0.375485,-0.60979 -0.649323,-0.58267 -0.908221,0.024 -0.908221,0.024 -1.268264,0.82836 -0.413865,0.92457 -1.714272,1.2736 -2.140653,0.57456 z m 31.272957,0.12264 c -0.67225,-0.43935 -0.54007,-1.72046 0.22241,-2.15552 0.22652,-0.12926 0.36862,-0.28565 0.43169,-0.47511 0.43118,-1.29539 2.27538,-1.77254 3.43367,-0.88839 0.23027,0.17577 0.46554,0.28182 0.6252,0.28182 1.50644,0 2.24866,2.05502 1.12,3.10103 -0.21932,0.20326 -5.54024,0.32749 -5.83297,0.13617 z m 5.66752,-0.49297 c 0.87682,-0.87682 0.0909,-2.47581 -1.17493,-2.39056 -0.21546,0.0145 -0.33056,-0.022 -0.38685,-0.12253 -0.62049,-1.10875 -2.87682,-0.60682 -3.16473,0.704 -0.0413,0.18789 -0.1416,0.28655 -0.41391,0.40701 -0.5832,0.25797 -0.78685,0.83484 -0.47518,1.34602 0.23898,0.39196 5.22988,0.44179 5.6156,0.0561 z m -16.11519,0.11647 c -0.56358,-0.59412 -0.39651,-1.57931 0.32969,-1.94408 0.19062,-0.0958 0.34461,-0.27424 0.47477,-0.55033 0.60744,-1.28841 2.34046,-1.65826 3.32714,-0.71007 0.12199,0.11724 0.32849,0.19629 0.56254,0.21537 1.52382,0.12417 2.18428,2.07826 1.01365,2.99907 -0.42377,0.33335 -1.25186,0.22721 -1.2587,-0.16133 -0.002,-0.0855 -0.10759,-0.13568 -0.32447,-0.15356 -0.42797,-0.0353 -0.45624,-0.16258 -0.15106,-0.68017 0.31812,-0.53954 0.23928,-0.60853 -0.68531,-0.59965 -0.855,0.008 -0.87462,0.0224 -1.27985,0.92733 -0.39096,0.87303 -1.4691,1.22595 -2.0084,0.65742 z m -10.359258,-0.055 c -0.487958,-0.53919 -0.28436,-1.45219 0.397438,-1.78224 0.292878,-0.14178 0.390203,-0.24536 0.465582,-0.49551 0.396348,-1.31527 2.366788,-1.75149 3.321438,-0.73531 0.14145,0.15057 0.28433,0.20739 0.52146,0.20739 1.46672,0 2.16763,1.89255 1.0318,2.786 -0.33145,0.26072 -5.503521,0.27845 -5.737718,0.0197 z m 1.651378,-7.52656 c -0.0438,-0.0819 -0.20589,-0.82484 -0.36014,-1.651 -0.297939,-1.59575 -0.344722,-1.71075 -0.464645,-1.14228 -0.251357,1.19153 -1.112701,-0.74999 -1.128721,-2.5442 -0.01072,-1.20004 0.03405,-1.21561 3.406036,-1.18461 3.36062,0.0309 3.6312,0.21583 3.02306,2.06635 -0.33809,1.02877 -0.60039,1.31026 -0.83908,0.90046 -0.0475,-0.0815 -0.0876,-0.12911 -0.0892,-0.10583 -0.024,0.35228 -0.53061,2.67416 -0.6023,2.76054 -0.29795,0.35901 -0.44825,0.10017 -0.69343,-1.19421 -0.11467,-0.60536 -0.2273,-1.04351 -0.25029,-0.97366 -0.023,0.0699 -0.0763,0.2413 -0.11842,0.381 -0.11025,0.36552 -0.50992,0.41248 -0.58594,0.0688 -0.14937,-0.67514 -0.1739,-0.62736 -0.44844,0.87348 -0.34967,1.91156 -0.54473,2.31273 -0.84851,1.74512 z m 0.57688,-3.57644 c 0.29558,-1.60013 0.30966,-1.63703 0.60861,-1.59467 0.16424,0.0233 0.21644,0.10393 0.29229,0.45167 0.0923,0.42333 0.0923,0.42333 0.21434,0 0.10206,-0.35415 0.1579,-0.42754 0.34166,-0.44908 0.26653,-0.0312 0.25587,-0.0579 0.49802,1.2458 0.2172,1.16934 0.2365,1.16436 0.46319,-0.11939 0.20114,-1.13914 0.5969,-1.61825 0.76931,-0.93133 0.0981,0.39098 0.2041,0.21641 0.2041,-0.33624 0,-0.54791 0,-0.54791 -2.54622,-0.5715 -3.086526,-0.0286 -3.000695,-0.0699 -2.686203,1.29255 0.101579,0.44006 0.101579,0.44006 0.232838,-0.057 0.115529,-0.43754 0.1586,-0.50026 0.35943,-0.52345 0.271565,-0.0314 0.274775,-0.0216 0.629885,1.90861 0.1305,0.70929 0.26151,1.26174 0.29116,1.22767 0.0296,-0.0341 0.17706,-0.72869 0.32759,-1.5436 z m 10.98349,3.45016 c -0.11329,-0.15134 -0.26928,-0.40028 -0.34664,-0.55321 -0.0894,-0.17666 -0.27854,-0.34503 -0.51878,-0.46175 -0.3581,-0.17398 -0.54332,-0.4712 -0.54541,-0.87524 -2.6e-4,-0.0501 -0.17193,-0.31183 -0.38148,-0.58168 -0.20955,-0.26986 -0.381,-0.49944 -0.381,-0.51017 0,-0.13917 0.20982,-0.55497 0.28345,-0.56171 1.08825,-0.0996 4.00394,-0.0217 4.13618,0.11056 0.25787,0.25786 0.19652,0.55498 -0.14396,0.69725 -0.28051,0.1172 -0.29633,0.14558 -0.29633,0.53162 0,0.3677 -0.067,0.50965 -0.6814,1.44365 -0.73831,1.12238 -0.81503,1.17428 -1.12463,0.76068 z M 4.3298832,26.8307 c -0.03159,-0.0511 0.133551,-0.28924 0.366983,-0.52917 0.568053,-0.58385 0.853596,-1.11503 0.42275,-0.78641 -0.920901,0.70241 -2.301595,0.63171 -3.185633,-0.16312 -1.19772202,-1.07685 -1.06228202,-2.99526 0.275048,-3.89587 0.711997,-0.47949 1.250261,-0.32438 0.598765,0.17254 -0.29441,0.22456 -0.716469,0.80162 -0.716469,0.97959 0,0.0499 0.126441,-0.006 0.280981,-0.12365 1.883583,-1.43668 4.511871,0.49219 3.824515,2.80677 -0.246185,0.82899 -1.610647,1.95401 -1.86694,1.53932 z m -0.128035,-2.41615 c 0.23278,-0.29593 0.221634,-0.58512 -0.03234,-0.83909 -0.366528,-0.36653 -0.873765,-0.23773 -1.067177,0.27098 -0.238281,0.62673 0.680138,1.10126 1.099517,0.56811 z m 8.1764778,2.41132 c -0.657798,-0.35979 -0.45286,-1.34514 0.278466,-1.33887 0.36672,0.003 0.570507,0.135 0.688573,0.44554 0.219764,0.57802 -0.435986,1.18379 -0.967039,0.89333 z m 0.508,-0.66423 c 0,-0.24993 -0.346978,-0.35651 -0.43277,-0.13294 -0.0843,0.21968 0.03386,0.40125 0.241892,0.37171 0.139931,-0.0199 0.190878,-0.0836 0.190878,-0.23877 z m 32.130999,0.29633 c 0,-0.54185 0.0185,-0.53342 -0.51382,-0.2342 -0.27237,0.15311 -0.44021,0.20303 -0.49578,0.14746 -0.12383,-0.12382 -0.0188,-0.23212 0.52277,-0.5389 0.47721,-0.27034 0.48683,-0.28316 0.48683,-0.64862 0,-0.96073 -1.12154,-0.70847 -1.14825,0.25826 -0.0196,0.70896 -0.022,0.71967 -0.16408,0.71967 -0.0988,0 -0.127,-0.11289 -0.127,-0.508 0,-0.2794 -0.0143,-0.508 -0.0317,-0.508 -0.0174,0 -0.20706,0.098 -0.42143,0.21784 -0.63085,0.35259 -0.80437,0.10014 -0.1819,-0.26465 0.20955,-0.12281 0.381,-0.23509 0.381,-0.24953 0,-0.0144 -0.17145,-0.12672 -0.381,-0.24952 -0.36951,-0.21654 -0.50853,-0.47014 -0.25773,-0.47014 0.0678,0 0.32401,0.11835 0.56935,0.26301 0.53464,0.31524 1.17004,0.1185 1.17004,-0.36228 0,-0.52096 -0.6256,-0.69995 -1.24186,-0.35532 -0.29273,0.16371 -0.57132,0.2735 -0.61909,0.24398 -0.15155,-0.0937 0.0534,-0.343 0.41648,-0.50674 0.42627,-0.19222 0.42522,-0.20365 -0.0449,-0.48905 -0.37073,-0.22504 -0.43068,-0.40286 -0.13543,-0.40171 0.0787,3.4e-4 0.25747,0.0763 0.39717,0.16877 0.3632,0.24054 0.381,0.22472 0.381,-0.33866 0,-0.39511 0.0282,-0.508 0.127,-0.508 0.1335,0 0.13901,0.0246 0.16843,0.75228 0.0384,0.95136 1.1439,1.21378 1.1439,0.27154 0,-0.41969 0,-0.41969 -0.50602,-0.69788 -0.27832,-0.15301 -0.52532,-0.32848 -0.54891,-0.38994 -0.0807,-0.21018 0.19224,-0.20224 0.53737,0.0156 0.47159,0.2977 0.51756,0.27988 0.51756,-0.20064 0,-0.38499 0.10648,-0.60407 0.23239,-0.47816 0.0285,0.0285 0.0431,0.24184 0.0325,0.47414 -0.0223,0.4888 0.0258,0.50822 0.50666,0.20466 0.32941,-0.20795 0.58311,-0.22521 0.58311,-0.0397 0,0.0476 -0.20646,0.20311 -0.45879,0.34552 -0.72512,0.40923 -0.92465,1.10738 -0.37174,1.3007 0.22411,0.0784 0.93178,-0.26368 0.90484,-0.43732 -0.0613,-0.39495 0.0277,-1.12085 0.13735,-1.12085 0.0988,0 0.127,0.11289 0.127,0.508 0,0.56614 0.0129,0.57694 0.40422,0.33835 0.30383,-0.18525 0.48957,-0.2136 0.56799,-0.0867 0.028,0.0453 -0.12864,0.19404 -0.34805,0.3306 -0.39892,0.24829 -0.39892,0.24829 0.0388,0.51762 0.24074,0.14813 0.43771,0.30191 0.43771,0.34174 0,0.19062 -0.21883,0.15396 -0.70547,-0.11819 -0.61522,-0.34405 -1.24186,-0.16557 -1.24186,0.3537 0,0.47382 0.64755,0.67197 1.17659,0.36004 0.73076,-0.43087 1.06505,-0.26935 0.35138,0.16978 -0.51413,0.31635 -0.50974,0.26867 -0.0496,0.53833 0.255,0.14944 0.36208,0.26208 0.3296,0.34671 -0.0659,0.1716 -0.14988,0.15869 -0.53036,-0.0815 -0.3983,-0.25143 -0.43096,-0.22506 -0.43096,0.34797 0,0.34494 -0.03,0.45156 -0.127,0.45156 -0.10077,0 -0.127,-0.12218 -0.127,-0.59161 0,-1.0572 -1.10939,-1.44391 -1.1514,-0.40135 -0.0162,0.40192 -0.0162,0.40192 0.52527,0.70473 0.29781,0.16654 0.54147,0.33882 0.54147,0.38284 0,0.18189 -0.26623,0.15936 -0.62899,-0.0532 -0.39321,-0.23044 -0.51337,-0.19434 -0.46736,0.1404 0.0444,0.3231 -0.0138,0.58022 -0.13132,0.58022 -0.0975,0 -0.127,-0.10819 -0.127,-0.46567 z m 0.4064,-2.17593 c 0.0559,-0.0559 0.1016,-0.18161 0.1016,-0.2794 0,-0.0978 -0.0457,-0.22352 -0.1016,-0.2794 -0.0559,-0.0559 -0.18161,-0.1016 -0.2794,-0.1016 -0.0978,0 -0.22352,0.0457 -0.2794,0.1016 -0.0559,0.0559 -0.1016,0.18161 -0.1016,0.2794 0,0.0978 0.0457,0.22352 0.1016,0.2794 0.0559,0.0559 0.18161,0.1016 0.2794,0.1016 0.0978,0 0.22352,-0.0457 0.2794,-0.1016 z M 2.3670532,26.49055 c -0.989903,-0.38047 -1.84818502,-1.52983 -1.94573302,-2.6056 -0.06494,-0.71618 0.257922,-0.80235 0.342133,-0.0913 0.143334,1.21022 1.35411802,2.53267 2.32267702,2.53687 0.13378,6e-4 0.1905,0.0512 0.1905,0.17016 0,0.22255 -0.313317,0.21907 -0.909577,-0.0101 z M 14.798101,26.3525 c -0.662233,-0.54125 0.06788,-1.56338 0.833807,-1.1673 0.268489,0.13884 0.344722,0.28234 0.344722,0.6489 0,0.54725 -0.743224,0.87417 -1.178529,0.5184 z m 0.669634,-0.40109 c 0.148442,-0.17886 0.04257,-0.38208 -0.199057,-0.38208 -0.235787,0 -0.356541,0.22055 -0.214476,0.39173 0.125575,0.15131 0.282997,0.14763 0.413533,-0.01 z m -1.9134,-0.33344 c -0.06127,-0.15967 0.521484,-1.06464 0.685577,-1.06464 0.209302,0 0.147215,0.27014 -0.170532,0.74196 -0.306135,0.45459 -0.433748,0.53454 -0.515045,0.32268 z m -0.33683,-0.41854 c -0.05595,-0.14581 -0.0671,-0.12236 0.458112,-0.9636 0.365398,-0.58527 0.532126,-0.71991 0.651758,-0.52634 0.06218,0.1006 -0.803956,1.53458 -0.957894,1.58589 -0.05615,0.0187 -0.124542,-0.0245 -0.151976,-0.096 z m 2.928458,-0.0334 c 0,-0.18118 0.56293,-1.03603 0.68224,-1.03603 0.194423,0 0.155668,0.25565 -0.106815,0.70462 -0.276362,0.4727 -0.575425,0.64495 -0.575425,0.33141 z m -3.514238,-0.10562 c -0.07106,-0.11497 0.533358,-1.09975 0.674976,-1.09975 0.22756,0 0.194512,0.24908 -0.09431,0.71083 -0.283487,0.45321 -0.465558,0.57516 -0.580662,0.38892 z m 3.139228,-0.24339 c -0.08337,-0.1349 0.817903,-1.53209 0.988843,-1.53295 0.239119,-0.001 0.166891,0.24985 -0.267741,0.93059 -0.385961,0.60451 -0.606114,0.78842 -0.721102,0.60236 z m -0.45049,-0.0658 c -0.158648,-0.064 -0.132222,-0.16968 0.167947,-0.67153 0.264817,-0.44275 0.572886,-0.61841 0.572886,-0.32667 0,0.11535 -0.555405,1.06485 -0.612781,1.04759 -0.01222,-0.004 -0.06984,-0.0259 -0.128052,-0.0494 z M 6.7615172,24.61764 c -0.05402,-0.054 -0.09822,-0.22252 -0.09822,-0.37444 0,-1.08956 -1.394836,-2.56858 -2.422384,-2.56858 -0.07907,0 -0.118023,-0.0581 -0.09939,-0.14816 0.141498,-0.68424 2.085593,0.54279 2.604815,1.64404 0.320624,0.68003 0.331994,1.76396 0.01518,1.44714 z m 4.6499168,-0.38185 c -0.283515,-0.23172 -0.321585,-0.70415 -0.07898,-0.98012 0.630825,-0.71757 1.672818,0.15414 1.08203,0.9052 -0.212343,0.26995 -0.718193,0.30773 -1.003051,0.0749 z m 0.669634,-0.40109 c 0.148443,-0.17886 0.04257,-0.38208 -0.199056,-0.38208 -0.235788,0 -0.356542,0.22056 -0.214476,0.39173 0.125574,0.15131 0.282997,0.14764 0.413532,-0.01 z m 20.339977,-0.53206 c -0.23444,-0.0386 -0.46603,-0.36729 -0.39295,-0.55775 0.0655,-0.17078 0.27788,-0.18229 0.34074,-0.0185 0.0833,0.21703 0.30602,0.2299 0.52118,0.0301 0.20772,-0.1929 0.20772,-0.1929 0.33583,-0.002 0.16116,0.23965 0.30772,0.2411 0.52749,0.005 0.17263,-0.1853 0.17263,-0.1853 0.34526,0 0.21569,0.23152 0.28562,0.23161 0.5008,6.8e-4 0.17204,-0.18466 0.17204,-0.18466 0.36859,0 0.24396,0.22918 0.36545,0.23304 0.48198,0.0153 0.0498,-0.0931 0.14509,-0.16934 0.21166,-0.16934 0.0666,0 0.16183,0.0762 0.21167,0.16934 0.0498,0.0931 0.14509,0.16933 0.21167,0.16933 0.0666,0 0.16182,-0.0762 0.21166,-0.16933 0.0498,-0.0931 0.1451,-0.16934 0.21167,-0.16934 0.0666,0 0.16182,0.0762 0.21167,0.16934 0.11757,0.21968 0.29687,0.2153 0.45546,-0.0111 0.14725,-0.21023 0.3912,-0.16033 0.3912,0.08 0,0.21199 -0.28167,0.45666 -0.52422,0.45535 -0.10749,-5.9e-4 -0.51929,-0.003 -0.91511,-0.006 -0.85976,-0.006 -1.22461,-0.007 -1.79917,-0.005 -0.10477,3.4e-4 -0.50114,-0.005 -0.88081,-0.0121 -0.37968,-0.007 -0.72258,0.003 -0.762,0.0229 -0.0394,0.0196 -0.15835,0.0213 -0.26427,0.004 z M 12.759296,23.04933 c 0,-0.25101 0.576384,-1.03697 0.720033,-0.98185 0.188881,0.0725 0.157273,0.19891 -0.171949,0.68777 -0.297981,0.44248 -0.548084,0.57667 -0.548084,0.29408 z m -0.361247,-0.3801 c -0.0656,-0.17095 0.796973,-1.49857 0.975081,-1.50077 0.239388,-0.003 0.166873,0.24878 -0.267742,0.9295 -0.3965,0.62102 -0.619224,0.8009 -0.707339,0.57127 z m 20.961136,-0.10586 c -0.0556,-0.0602 -0.14371,-0.12369 -0.19578,-0.14104 -0.26215,-0.0874 1.22442,-1.55601 1.76563,-1.74432 0.53484,-0.1861 1.77502,1.49634 1.3542,1.8371 -0.24806,0.20087 -0.27828,0.1801 -0.40707,-0.2799 -0.14052,-0.50189 -0.76843,-0.99064 -1.04822,-0.81591 -0.41297,0.25791 -1.24065,0.97164 -1.24065,1.06985 0,0.16053 -0.11411,0.19766 -0.22811,0.0742 z m -21.531222,-0.0505 c 0,-0.20228 0.556335,-1.00285 0.6985,-1.00516 0.215643,-0.004 0.182654,0.19301 -0.113095,0.67366 -0.241457,0.39242 -0.585405,0.58719 -0.585405,0.3315 z m 32.939882,-5.58835 c -0.64423,-0.25729 -1.27455,-1.09042 -1.27455,-1.68465 0,-0.17391 -0.0699,-0.3597 -0.17897,-0.47581 -0.0984,-0.10478 -0.18527,-0.29774 -0.19297,-0.42879 -0.008,-0.14335 -0.12266,-0.34534 -0.2867,-0.50695 -0.28863,-0.28436 -0.35692,-0.64344 -0.18385,-0.96681 0.0697,-0.1302 0.0496,-0.22115 -0.0933,-0.42173 -0.61627,-0.86548 -0.019,-1.67349 1.46135,-1.97677 2.22943,-0.45676 4.49282,0.52315 3.85974,1.67103 -0.0561,0.10172 -0.11529,0.27618 -0.13154,0.38771 -0.081,0.55614 -0.8001,1.57432 -1.50794,2.13519 -0.68997,0.54671 -0.81522,0.78928 -0.78535,1.52094 0.0314,0.77006 -0.1454,0.96254 -0.68596,0.74664 z m 0.17912,-0.75508 c -0.0701,-0.73461 0.0227,-0.91108 0.95592,-1.81846 0.94297,-0.91686 1.62624,-1.95906 1.16758,-1.7809 -0.53965,0.20961 -1.7145,0.24392 -1.7145,0.0501 0,-0.0357 0.25717,-0.0882 0.5715,-0.11657 2.26428,-0.20454 1.97058,-1.52092 -0.38314,-1.71721 -1.95944,-0.16341 -3.24727,0.63938 -2.46143,1.5344 0.26692,0.30401 0.26692,0.30401 0.0798,0.63694 -0.2107,0.3749 -0.0382,0.68372 0.4503,0.80634 0.24899,0.0625 0.2754,0.16158 0.092,0.34502 -0.17466,0.17465 -0.16058,0.25836 0.0847,0.5036 0.1553,0.1553 0.21167,0.30196 0.21167,0.55069 0,0.42423 0.15956,0.73815 0.54895,1.08005 0.39231,0.34445 0.43584,0.33633 0.39672,-0.074 z m -0.88542,-1.57477 c -0.13437,-0.13437 -0.0646,-0.39074 0.0879,-0.32302 0.0815,0.0362 0.31194,0.0823 0.5121,0.10258 0.22289,0.0225 0.35157,0.0744 0.33201,0.13377 -0.0354,0.10752 -0.83667,0.18203 -0.93203,0.0867 z m -0.0556,-1.05194 c -0.44479,-0.0917 -0.68269,-0.28321 -0.53509,-0.43081 0.0732,-0.0732 0.17361,-0.061 0.40637,0.0494 0.24479,0.11616 0.48366,0.14068 1.14803,0.11783 0.4614,-0.0159 0.83887,6.7e-4 0.83883,0.0367 -2.5e-4,0.19947 -1.25044,0.35208 -1.85814,0.22682 z m 1.06989,-1.5763 c -0.44824,-0.0766 -0.37033,-0.44741 0.0947,-0.45049 0.10853,-6.8e-4 0.17222,-0.039 0.14317,-0.086 -0.13576,-0.21968 -0.87564,-0.0924 -1.16918,0.20115 -0.26974,0.26975 -0.30029,0.27974 -0.54299,0.1777 -1.12382,-0.47253 1.03353,-1.13154 2.47508,-0.75606 1.47396,0.38392 0.59492,1.18647 -1.00074,0.91366 z m -13.54713,4.47271 c -1.65605,-3.0427 2.06692,-7.61717 4.47707,-5.50103 1.2991,1.14063 -0.2851,3.45751 -1.61146,2.35673 -0.22369,-0.18565 -0.27752,0.60088 -0.0854,1.24784 0.30946,1.04206 1.45304,1.54396 3.51788,1.54396 0.67121,0 0.67121,0 0.67121,0.381 0,0.62357 -6.62916,0.59645 -6.9693,-0.0285 z m 2.59867,-0.96633 c -0.31175,-0.29104 -0.6405,-0.64347 -0.73056,-0.78317 -0.16375,-0.254 -0.16375,-0.254 -0.11119,0.11472 0.11513,0.8077 0.43917,1.19762 0.99526,1.19762 0.41331,0 0.41331,0 -0.15351,-0.52917 z m -1.82672,0.0423 c -0.29099,-1.05344 0.24407,-2.2118 1.25547,-2.71797 0.34596,-0.17314 0.35142,-0.17325 0.49846,-0.0108 0.63624,0.70304 1.84875,-0.21237 1.47535,-1.11384 -0.48137,-1.16213 -2.61818,-0.43081 -3.43105,1.17427 -0.35619,0.70333 -0.36158,1.87387 -0.0117,2.54132 0.27563,0.52581 0.33307,0.55999 0.21347,0.127 z M 2.8411382,16.43812 c -3.13894102,-1.03982 -2.44097202,-5.62288 0.858865,-5.63954 2.562583,-0.0129 3.845296,2.87169 2.155043,4.84638 -0.665643,0.77765 -2.000377,1.12891 -3.013908,0.79316 z m 0.813073,-1.71215 c 0.835836,-0.31273 1.661983,-1.25082 1.868963,-2.12222 0.06944,-0.29236 -0.495897,-0.85552 -1.047513,-1.04348 -1.760763,-0.59995 -3.46557,1.08122 -2.881499,2.84154 0.183335,0.55256 1.074717,0.69282 2.060049,0.32416 z M 1.9378062,13.8647 c 0.02886,-0.29872 0.35763,-0.53374 0.610765,-0.43661 0.189157,0.0726 0.169252,0.29487 -0.0311,0.34726 -0.09159,0.0239 -0.189408,0.11563 -0.217372,0.20374 -0.09373,0.29532 -0.392761,0.2009 -0.362296,-0.11439 z m 1.770744,-0.43479 c -0.187393,-0.22579 0.141731,-0.72429 0.562953,-0.85265 0.525953,-0.16028 0.741508,0.29661 0.238996,0.50657 -0.159594,0.0667 -0.314562,0.19809 -0.344372,0.29201 -0.06222,0.19602 -0.31498,0.22589 -0.457577,0.0541 z M 2.5223262,12.6218 c -0.320717,-0.20303 0.256042,-0.79572 0.633412,-0.65091 0.188344,0.0723 0.112993,0.34288 -0.104135,0.37398 -0.09955,0.0143 -0.200372,0.1 -0.224042,0.1905 -0.04714,0.18025 -0.123069,0.20175 -0.305235,0.0864 z m 21.2991488,3.84931 c -1.15614,-0.41221 -1.45688,-1.84728 -0.65283,-3.11513 0.48051,-0.75769 0.76415,-1.32353 0.97028,-1.93564 0.26105,-0.77522 0.33806,-0.8029 0.51609,-0.1855 0.13334,0.46244 0.27194,0.74615 1.12942,2.31177 0.96136,1.75531 -0.23658,3.54004 -1.96296,2.9245 z m -0.0146,-0.80544 c 0.028,-0.0453 -0.006,-0.16907 -0.0754,-0.27516 -0.0694,-0.1061 -0.15237,-0.35662 -0.18431,-0.55673 -0.08,-0.50112 -0.34527,-0.47655 -0.30412,0.0282 0.0494,0.60559 0.38797,1.08826 0.56382,0.80373 z M 13.489818,15.54413 c -1.645954,-0.6126 -1.876413,-2.95647 -0.368147,-3.7442 0.234684,-0.12257 0.235137,-0.12227 0.169333,0.11339 -0.402669,1.44204 0.742647,2.79151 2.221663,2.61768 0.542192,-0.0637 0.568409,-0.008 0.196872,0.41466 -0.527137,0.60037 -1.505724,0.86422 -2.219721,0.59847 z M 2.7686902,6.52933 c -3.49102502,-1.14088 -2.92978902,-6.27669 0.711446,-6.51037 3.602757,-0.23121 4.918291,4.61768 1.701554,6.27171 -0.535522,0.27537 -1.890579,0.40938 -2.413,0.23866 z M 4.6581172,5.87649 C 5.4755922,5.59795 6.3221262,4.61732 6.1331312,4.16783 6.0255112,3.91188 6.0255112,3.91188 5.8270542,4.07263 5.2602622,4.53159 4.6093882,3.91231 4.9637202,3.2512 5.2604462,2.69758 5.1982902,2.32191 4.7795232,2.13792 4.5059022,2.01771 4.4769962,1.86504 4.7160232,1.80253 4.9478492,1.74193 4.9293542,1.6388 4.6243432,1.2914 4.4691402,1.11464 4.3793452,0.93287 4.4028402,0.84303 c 0.0482,-0.1843 -0.15295,-0.24997 -0.745149,-0.24326 -0.489299,0.006 -0.804286,0.0999 -0.650547,0.19495 0.213744,0.1321 0.109522,0.4755 -0.199686,0.65793 -0.362369,0.21381 -0.342075,0.35705 0.05145,0.36316 0.409018,0.006 0.478615,0.4029 0.09423,0.5369 -0.194185,0.0677 -0.522655,0.40514 -0.745175,0.76555 -0.0095,0.0154 -0.109318,-0.0324 -0.22185,-0.10613 -0.383474,-0.25126 -0.445459,0.14566 -0.08525,0.54592 0.163267,0.18143 0.384614,0.29785 0.740833,0.38967 1.760097,0.45366 2.001082,1.8589 0.325871,1.90023 -0.211136,0.005 -0.220096,0.015 -0.07187,0.0787 0.287026,0.12334 1.34134,0.0934 1.762427,-0.0501 z M 3.4927582,1.58745 c -0.135476,-0.43958 -0.127018,-0.8255 0.01809,-0.8255 0.413407,0 0.699348,0.55662 0.426239,0.82973 -0.132949,0.13295 -0.402845,0.13038 -0.444332,-0.004 z M 2.6390592,5.75302 C 2.6088292,5.70412 2.5588792,5.48776 2.5280482,5.27223 2.4791982,4.93073 2.4402982,4.87189 2.2253912,4.81441 1.9188902,4.73241 1.8403042,4.61272 1.8386532,4.22524 1.8377982,4.02442 1.7766732,3.86598 1.6590142,3.75957 1.4163642,3.54012 1.1611852,3.02114 1.1546572,2.73382 c -0.0054,-0.23621 -0.0054,-0.23621 -0.0927,-0.0245 -0.23633702,0.57283 0.04945,1.74404 0.579185,2.37359 0.286558,0.34056 1.154405,0.92336 0.997913,0.67015 z M 45.034655,6.03245 c 0.0319,-0.72791 0.18606,-0.71357 0.2194,0.0204 0.0208,0.45797 0.002,0.5511 -0.1097,0.5511 -0.11237,0 -0.13058,-0.0949 -0.1097,-0.5715 z m -1.20077,0.21166 c 0.002,-0.22761 0.28037,-0.86529 0.41325,-0.94742 0.19103,-0.11806 0.1769,0.18699 -0.0304,0.65565 -0.22031,0.49817 -0.38614,0.62453 -0.38289,0.29177 z m 2.2372,-0.29369 c -0.20674,-0.46748 -0.21849,-0.74728 -0.0287,-0.68403 0.0697,0.0232 0.49899,0.92364 0.49899,1.04655 0,0.25807 -0.2971,0.029 -0.47027,-0.36252 z M 14.45269,6.1711 c 0,-0.0473 0.11948,-0.18662 0.265512,-0.3095 C 15.198412,5.45753 15.35884,4.53937 15.098875,3.68295 14.996073,3.34428 14.996073,3.34428 14.884391,3.74045 14.72956,4.28968 14.44496,4.54952 14.146947,4.41373 13.775938,4.24469 13.926295,3.35664 14.46252,2.54988 c 0.252135,-0.37935 0.0055,-0.26376 -0.465908,0.21834 -0.912022,0.93272 -1.245393,2.47925 -0.679421,3.15187 0.263928,0.31366 0.09954,0.36059 -0.453565,0.12948 -1.349297,-0.56377 -1.284912,-1.84292 0.17127,-3.40268 0.807711,-0.86517 1.045943,-1.32868 0.97081,-1.88883 -0.06229,-0.46441 0.03809,-0.41385 0.669305,0.33711 1.702685,2.02571 2.023432,3.75098 0.870002,4.67965 C 15.215865,6.03984 14.45269,6.3167 14.45269,6.1711 Z M 25.147155,5.66479 c -0.62546,-0.18296 -1.07786,-1.2573 -0.56045,-1.33093 0.15339,-0.0218 0.19556,0.0263 0.24253,0.27665 0.15461,0.82413 1.39212,0.7622 1.39212,-0.0697 0,-0.63821 -0.18445,-0.68617 -2.74422,-0.71357 -2.335779,-0.025 -2.335779,-0.025 -2.335779,-0.23283 0,-0.27061 4.544369,-0.33376 4.991959,-0.0694 1.17435,0.6937 0.33041,2.52482 -0.98616,2.1397 z m 17.5842,-0.0592 c 0,-0.10667 0.71532,-0.77962 0.8287,-0.77962 0.19279,0 0.10291,0.21936 -0.21844,0.53315 -0.29225,0.28538 -0.61026,0.41382 -0.61026,0.24647 z m 4.21609,-0.25883 c -0.25882,-0.24142 -0.33397,-0.36598 -0.28998,-0.48062 0.0515,-0.13431 0.11488,-0.10008 0.47964,0.25919 0.63309,0.62358 0.45916,0.82664 -0.18966,0.22143 z m -2.41983,-0.25753 c -1.57009,-0.54234 -1.72777,-2.69709 -0.25121,-3.43289 1.90739,-0.9505 3.70103,1.4343 2.22883,2.96342 -0.55068,0.57196 -1.22054,0.73098 -1.97762,0.46947 z m 1.3039,-0.34057 c 1.10284,-0.50082 1.19943,-2.16218 0.16042,-2.75903 -0.68182,-0.39165 -1.31517,-0.34315 -1.86902,0.14313 -1.38475,1.21584 0.0281,3.37902 1.7086,2.6159 z m -2.05207,-1.40051 c -0.19926,-0.51928 0.60987,-1.40085 1.28576,-1.40085 0.34592,0 0.23676,0.22619 -0.15702,0.32534 -0.44676,0.1125 -0.71101,0.38111 -0.801,0.81424 -0.0732,0.35249 -0.24131,0.48648 -0.32774,0.26127 z m -11.68094,1.35747 c -0.51161,-0.22275 -0.79407,-0.82161 -0.50189,-1.06409 0.16532,-0.13721 0.36619,-0.0537 0.45919,0.19091 0.23498,0.61805 1.44688,0.5635 1.44688,-0.0651 0,-0.31418 0.45058,-0.21572 0.59367,0.12973 0.20838,0.50309 1.10197,0.52594 1.3534,0.0346 0.24109,-0.47111 0.45294,-0.49745 0.65153,-0.081 0.26731,0.56055 1.12789,0.60102 1.38074,0.0649 0.18283,-0.38765 0.50569,-0.45437 0.63008,-0.13021 0.26373,0.68726 -1.15047,1.31458 -2.02421,0.89793 -0.28058,-0.1338 -0.31784,-0.1338 -0.59841,0 -0.37713,0.17984 -1.06895,0.18383 -1.40871,0.008 -0.23774,-0.12295 -0.29054,-0.12295 -0.61246,0 -0.42581,0.16262 -1.01489,0.16872 -1.36981,0.0142 z m 9.95552,-0.14982 c 0,-0.11406 0.76539,-0.49183 0.99647,-0.49183 0.22887,0 0.0851,0.25977 -0.21331,0.38535 -0.5,0.21044 -0.78316,0.24894 -0.78316,0.10648 z m 5.48216,-0.0859 c -0.37534,-0.16151 -0.54781,-0.40591 -0.28645,-0.40591 0.23227,0 0.98495,0.36447 0.98495,0.47695 0,0.15747 -0.21927,0.13517 -0.6985,-0.071 z M 32.465525,3.88787 c -0.0815,-0.0475 -0.14817,-0.13565 -0.14817,-0.19597 0,-0.17296 -0.27265,-0.37311 -0.55033,-0.404 -0.2195,-0.0244 -0.254,-0.0627 -0.254,-0.28225 0,-0.38288 0.40663,-0.41815 0.53619,-0.0465 0.20176,0.57877 1.24392,0.56893 1.44701,-0.0137 0.1076,-0.30866 0.41523,-0.29984 0.57232,0.0164 0.29899,0.60191 1.23513,0.56673 1.47162,-0.0553 0.10244,-0.26942 0.41437,-0.23863 0.56038,0.0553 0.29275,0.58933 1.12012,0.58871 1.42511,-10e-4 0.13482,-0.26072 0.50001,-0.35623 0.56914,-0.14885 0.0891,0.26718 -0.0401,0.49003 -0.28398,0.49003 -0.25632,0 -0.58279,0.25578 -0.58279,0.4566 0,0.30488 -0.62707,0.29559 -0.81763,-0.0121 -0.3573,-0.57695 -1.21437,-0.56082 -1.21437,0.0229 0,0.0671 -0.0981,0.1467 -0.21791,0.17678 -0.25629,0.0643 -0.62876,-0.0827 -0.62876,-0.2482 0,-0.19419 -0.29459,-0.39593 -0.57817,-0.39593 -0.27947,0 -0.60716,0.24643 -0.60716,0.4566 0,0.2112 -0.42334,0.28955 -0.6985,0.12928 z m 9.37227,-0.50859 c -0.10751,-0.17396 0.10771,-0.25577 0.60523,-0.23005 0.39497,0.0204 0.5042,0.0565 0.52655,0.17392 0.033,0.17356 -1.02672,0.22611 -1.13178,0.0561 z m 5.48134,-0.0561 c 0.0318,-0.16702 0.85911,-0.2564 1.07457,-0.11608 0.23137,0.15068 -0.006,0.26425 -0.55122,0.26425 -0.47958,0 -0.54787,-0.0193 -0.52335,-0.14817 z M 21.173581,3.17921 c -0.146276,-0.38119 -0.116863,-0.38519 2.832364,-0.38519 2.68955,0 2.79291,-0.006 3.00833,-0.17548 0.28405,-0.22344 0.30907,-0.7163 0.0504,-0.99389 -0.36849,-0.39552 -1.18204,-0.11442 -1.18204,0.40842 0,0.25397 -0.23805,0.38984 -0.39974,0.22816 -0.36817,-0.36818 0.28271,-1.24255 0.97443,-1.30902 1.25758,-0.12084 1.78812,1.45719 0.72443,2.15471 -0.33317,0.21847 -5.926303,0.28577 -6.008224,0.0723 z M 32.304045,2.79223 c -0.10083,-0.28924 -0.29589,-0.42155 -0.62149,-0.42155 -0.20013,0 -0.21992,-0.0278 -0.19606,-0.27516 0.0342,-0.35514 0.38437,-0.39651 0.54967,-0.0649 0.29858,0.5989 1.24623,0.59698 1.45537,-0.003 0.108,-0.30982 0.41469,-0.32388 0.56267,-0.0258 0.3149,0.63429 1.2501,0.65468 1.46717,0.032 0.1184,-0.33962 0.38788,-0.34168 0.56235,-0.004 0.30826,0.5961 1.26238,0.59889 1.46965,0.004 0.10379,-0.29772 0.38167,-0.34738 0.51803,-0.0926 0.13031,0.24348 0.022,0.4166 -0.27895,0.4458 -0.2023,0.0196 -0.31792,0.10366 -0.47264,0.3435 -0.29367,0.45521 -0.78884,0.4675 -0.97408,0.0242 -0.21363,-0.51129 -0.73473,-0.52263 -1.05804,-0.023 -0.2938,0.45402 -0.78899,0.46572 -0.97396,0.023 -0.21363,-0.51129 -0.73473,-0.52263 -1.05804,-0.023 -0.28147,0.43496 -0.80942,0.46855 -0.95165,0.0606 z M 21.141356,2.50364 c 0,-0.2057 0,-0.2057 1.315582,-0.23283 1.401827,-0.0289 1.474237,-0.0519 1.477117,-0.46865 0.003,-0.42879 -0.6461,-0.44897 -0.73135,-0.0228 -0.0782,0.39114 -0.53793,0.39919 -0.53703,0.009 0.002,-0.73674 1.07658,-1.05723 1.58718,-0.47324 0.31215,0.35701 0.18494,1.08552 -0.22814,1.30659 -0.39086,0.20918 -2.883359,0.10672 -2.883359,-0.11853 z m 26.044239,0.0597 c -0.16175,-0.16174 0.55501,-0.61601 0.97196,-0.61601 0.0951,0 0.10252,0.22832 0.009,0.28595 -0.20798,0.12854 -0.9374,0.3739 -0.98123,0.33006 z m -4.70434,-0.1857 c -0.38002,-0.15407 -0.50475,-0.28774 -0.35491,-0.38035 0.12569,-0.0777 1.02834,0.29753 1.02834,0.42746 0,0.15355 -0.21573,0.13846 -0.67343,-0.0471 z m 0.59739,-0.88719 c -0.32633,-0.33251 -0.39782,-0.55912 -0.17637,-0.55912 0.10366,0 0.71808,0.67107 0.71808,0.78429 0,0.20799 -0.19693,0.12613 -0.54171,-0.22517 z m 3.58483,0.27965 c -0.0657,-0.10624 0.61948,-0.83877 0.78451,-0.83877 0.20054,0 0.11294,0.20162 -0.24692,0.5683 -0.37702,0.38414 -0.44591,0.41881 -0.53759,0.27047 z m -2.65816,-0.8072 c -0.19709,-0.44557 -0.22216,-0.70896 -0.0675,-0.70879 0.12311,1.4e-4 0.51345,0.90432 0.44101,1.02154 -0.0982,0.15896 -0.20408,0.0704 -0.37355,-0.31275 z m 1.90453,0.31275 c -0.0871,-0.14087 0.32311,-1.02759 0.46218,-0.99915 0.15123,0.0309 0.13124,0.19348 -0.0862,0.70069 -0.15714,0.36658 -0.27572,0.46071 -0.376,0.29846 z m -0.89249,-0.68299 c 0,-0.47037 0.0262,-0.59266 0.127,-0.59266 0.10079,0 0.127,0.12229 0.127,0.59266 0,0.47037 -0.0262,0.59267 -0.127,0.59267 -0.10079,0 -0.127,-0.1223 -0.127,-0.59267 z"
       id="path657"
       inkscape:label="path186"
       clip-path="url(#clipPath2511)" /></g></svg>
