<?xml version="1.0" encoding="UTF-8" standalone="no"?>
<!-- Created with Inkscape (http://www.inkscape.org/) -->

<svg
   width="60mm"
   height="60.000004mm"
   viewBox="0 0 60 60.000004"
   version="1.1"
   id="svg5"
   xml:space="preserve"
   xmlns:inkscape="http://www.inkscape.org/namespaces/inkscape"
   xmlns:sodipodi="http://sodipodi.sourceforge.net/DTD/sodipodi-0.dtd"
   xmlns="http://www.w3.org/2000/svg"
   xmlns:svg="http://www.w3.org/2000/svg"><sodipodi:namedview
     id="namedview7"
     pagecolor="#505050"
     bordercolor="#eeeeee"
     borderopacity="1"
     inkscape:showpageshadow="0"
     inkscape:pageopacity="0"
     inkscape:pagecheckerboard="0"
     inkscape:deskcolor="#505050"
     inkscape:document-units="mm"
     showgrid="false" /><defs
     id="defs2"><clipPath
       clipPathUnits="userSpaceOnUse"
       id="clipPath1258"><rect
         style="display:inline;fill:none;stroke-width:1.14663"
         id="rect1260"
         width="268.11676"
         height="226.77165"
         x="281.18005"
         y="0"
         inkscape:export-filename="LFO.svg"
         inkscape:export-xdpi="96"
         inkscape:export-ydpi="96" /></clipPath><clipPath
       clipPathUnits="userSpaceOnUse"
       id="clipPath1262"><rect
         style="display:inline;fill:none;stroke-width:0.303379"
         id="rect1264"
         width="70.939224"
         height="60"
         x="52.723221"
         y="141.83034"
         inkscape:export-filename="LFO.svg"
         inkscape:export-xdpi="96"
         inkscape:export-ydpi="96" /></clipPath><clipPath
       clipPathUnits="userSpaceOnUse"
       id="clipPath1266"><rect
         style="display:inline;fill:none;stroke-width:0.279008"
         id="rect1268"
         width="60"
         height="60"
         x="0"
         y="0"
         inkscape:export-filename="LFO.svg"
         inkscape:export-xdpi="96"
         inkscape:export-ydpi="96" /></clipPath></defs><g
     inkscape:label="Layer 1"
     inkscape:groupmode="layer"
     id="layer1"><path
       style="display:none;fill:#000000;stroke-width:0.352778"
       d="m 20.596542,41.667 c -0.79863,-0.363 -1.85964,-1.194 -2.3578,-1.847 -0.49816,-0.653 -1.3105,-2.06 -1.80521,-3.125 -0.49471,-1.066 -1.15623,-3.129 -1.47004,-4.584 -0.45396,-2.105 -0.80531,-2.875 -1.71926,-3.767 -0.65668,-0.641 -1.7058,-1.225 -2.44932,-1.365 -0.74396,-0.139 -1.2374297,-0.415 -1.1529697,-0.643 0.0812,-0.219 0.3659197,-0.342 0.6327097,-0.273 0.26679,0.07 0.67891,0.157 0.91583,0.195 0.23692,0.04 0.54119,0.181 0.67616,0.316 0.13496,0.135 0.53643,0.245 0.89215,0.245 0.35572,0 0.64676,-0.244 0.64676,-0.543 0,-0.299 -0.33823,-1.211 -0.75162,-2.028 -0.41339,-0.817 -1.05524,-1.916 -1.42632,-2.443 -0.37522,-0.533 -1.2437597,-1.115 -1.95676,-1.312 -1.037191,-0.286 -1.572079,-0.226 -2.800336,0.318 -1.055876,0.467 -1.836613,1.173 -2.563602,2.32 -0.57494,0.906 -1.14868,2.118 -1.274979,2.693 -0.126298,0.575 -0.138988,1.137 -0.0282,1.247 0.110789,0.111 0.436442,0 0.723673,-0.232 0.287231,-0.238 0.676973,-0.337 0.866093,-0.221 0.18912,0.117 0.443568,0.05 0.56544,-0.146 0.121873,-0.197 0.463572,-0.358 0.759332,-0.358 0.295759,0 0.471823,0.198 0.391253,0.439 -0.08057,0.242 -0.371613,0.45 -0.64676,0.461 -0.275147,0.01 -0.817767,0.164 -1.205822,0.337 C 3.668888,27.524 3.093273,27.912 2.777799,28.213 2.462325,28.514 2.09444,29.117 1.960276,29.553 1.794703,30.092 1.440665,30.347 0.85817102,30.347 0.062982,30.347 0,30.217 0,28.575 0,27.6 0.303422,25.939 0.67427202,24.883 1.045122,23.828 1.864901,22.246 2.496002,21.367 3.225118,20.352 4.290704,19.447 5.418773,18.885 6.395195,18.398 7.644265,18 8.194484,18 c 0.550218,0 1.5112383,0.216 2.135598,0.48 0.62436,0.264 1.59531,0.938 2.15767,1.499 0.56237,0.561 1.47154,1.972 2.0204,3.136 0.54886,1.164 1.30333,3.308 1.67661,4.763 0.37328,1.455 0.8691,3.061 1.10183,3.569 0.23272,0.508 1.0572,1.262 1.83216,1.676 0.77497,0.414 1.63216,0.752 1.90486,0.752 0.27271,0 0.49583,0.132 0.49583,0.294 0,0.162 -0.0965,0.39 -0.21442,0.508 -0.11793,0.118 -0.5545,0.04 -0.97014,-0.172 -0.41564,-0.213 -1.05225,-0.534 -1.41467,-0.714 -0.40567,-0.201 -0.78569,-0.2 -0.98869,0 -0.20446,0.204 -0.005,1.053 0.52517,2.234 0.4702,1.047 1.35833,2.376 1.97363,2.954 0.86478,0.812 1.44643,1.05 2.56247,1.05 1.24629,0 1.61821,-0.197 2.71923,-1.441 0.70151,-0.793 1.55489,-2.204 1.89641,-3.134 0.34151,-0.931 0.54379,-1.77 0.4495,-1.864 -0.0943,-0.09 -0.4134,0.03 -0.70913,0.275 -0.29574,0.245 -0.5377,0.328 -0.5377,0.183 0,-0.144 -0.2361,-0.07 -0.52467,0.173 -0.28857,0.239 -0.75974,0.345 -1.04704,0.235 -0.2873,-0.11 -0.60477,-0.07 -0.70549,0.1 -0.10073,0.163 -0.66328,0.272 -1.25013,0.242 -0.58684,-0.03 -1.06309,-0.209 -1.05833,-0.4 0.005,-0.19 0.28442,-0.353 0.62146,-0.363 0.33705,0 1.58052,-0.224 2.76327,-0.478 1.69097,-0.362 2.26907,-0.661 2.70561,-1.4 0.30534,-0.517 0.898247,-2.283 1.317567,-3.926 0.41932,-1.642 1.15965,-3.825 1.64518,-4.852 0.48553,-1.026 1.28361,-2.342 1.77351,-2.924 0.48989,-0.583 1.22705,-1.239 1.63812,-1.459 0.41107,-0.22 1.26673,-0.517 1.90148,-0.66 0.63474,-0.143 1.77983,-0.102 2.54465,0.09 0.7881,0.201 1.93713,0.9 2.6521,1.615 0.69384,0.694 1.65151,2.066 2.12814,3.049 0.47663,0.984 1.26582,3.296 1.753737,5.139 0.74368,2.81 1.07232,3.504 2.03244,4.292 0.62992,0.517 1.25603,0.872 1.39136,0.788 0.13533,-0.08 0.34577,0 0.46764,0.206 0.12187,0.198 0.54295,0.359 0.93572,0.359 0.42236,0 0.64807,0.18 0.55244,0.441 -0.0889,0.242 -0.37997,0.384 -0.64675,0.316 -0.26679,-0.07 -0.67892,-0.157 -0.91584,-0.196 -0.23692,-0.04 -0.54119,-0.181 -0.67615,-0.316 -0.13497,-0.135 -0.53644,-0.245 -0.89216,-0.245 -0.35572,0 -0.64676,0.243 -0.64676,0.541 0,0.297 0.38907,1.308 0.8646,2.247 0.47554,0.938 1.36084,2.124 1.96735,2.634 0.64966,0.547 1.53366,0.928 2.15153,0.928 0.57683,0 1.49824,-0.233 2.04757,-0.517 0.54934,-0.284 1.39906,-0.992 1.88826,-1.573 0.48921,-0.582 1.16604,-1.781 1.50407,-2.667 0.33803,-0.885 0.51614,-1.707 0.3958,-1.828 -0.12034,-0.12 -0.46459,-0.01 -0.76501,0.235 -0.30042,0.249 -0.64684,0.353 -0.76982,0.23 -0.12298,-0.123 -0.43462,-0.05 -0.69254,0.165 -0.25791,0.214 -0.704,0.299 -0.9913,0.189 -0.28729,-0.11 -0.60477,-0.07 -0.70549,0.1 -0.10073,0.163 -0.62175,0.274 -1.15783,0.247 -0.53608,-0.03 -1.01496,-0.207 -1.06417,-0.4 -0.0492,-0.193 0.26828,-0.376 0.70555,-0.407 0.43727,-0.03 1.35067,-0.131 2.02977,-0.223 0.67909,-0.09 1.54009,-0.294 1.91332,-0.447 0.37324,-0.153 0.94557,-0.545 1.27186,-0.871 0.32629,-0.327 0.70122,-1.024 0.83317,-1.55 0.18376,-0.732 0.42277,-0.929 1.0212,-0.844 0.62483,0.09 0.80333,0.378 0.89141,1.444 0.0606,0.734 -0.15078,2.242 -0.46966,3.352 -0.31888,1.109 -1.07481,2.795 -1.67985,3.746 -0.6088,0.956 -1.80841,2.177 -2.68622,2.734 -1.20623,0.765 -2.01322,1.005 -3.36916,1.004 -1.13253,0 -2.18639,-0.247 -2.88868,-0.675 -0.60812,-0.371 -1.51572,-1.212 -2.0169,-1.869 -0.50117,-0.657 -1.2899,-2.06 -1.75273,-3.117 -0.462827,-1.057 -1.128397,-3.113 -1.479047,-4.568 -0.35065,-1.455 -0.80915,-2.924 -1.01888,-3.263 -0.20974,-0.34 -0.89876,-0.863 -1.53115,-1.163 -0.63239,-0.3 -1.14979,-0.697 -1.14979,-0.882 0,-0.185 0.20637,-0.336 0.45861,-0.336 0.25223,0 0.64911,0.19 0.88194,0.423 0.30803,0.308 0.52909,0.317 0.81162,0.03 0.28254,-0.283 0.12348,-0.978 -0.58396,-2.555 -0.53474,-1.191 -1.43602,-2.557 -2.00285,-3.034 -0.70375,-0.592 -1.46098,-0.867 -2.38759,-0.867 -0.96068,0 -1.68867,0.279 -2.49278,0.956 -0.6247,0.526 -1.50846,1.756 -1.9639,2.734 -0.45545,0.978 -0.82964,2.056 -0.83154,2.396 -0.002,0.339 0.14594,0.617 0.32851,0.617 0.18258,0 0.43168,-0.161 0.55355,-0.358 0.12187,-0.198 0.36936,-0.268 0.54999,-0.156 0.18061,0.112 0.3284,0.352 0.3284,0.535 0,0.182 -0.21046,0.332 -0.46768,0.332 -0.25721,0 -0.79734,0.357 -1.20026,0.794 -0.41404,0.448 -1.12686,2.287 -1.63932,4.228 -0.4987,1.889 -1.22955,4.067 -1.62412,4.841 -0.39457,0.773 -1.229877,1.99 -1.856247,2.703 -0.62637,0.714 -1.65217,1.512 -2.27956,1.774 -0.62739,0.262 -1.58237,0.473 -2.12218,0.469 -0.5398,0 -1.63489,-0.305 -2.43353,-0.667 z"
       id="path231" /><path
       style="display:none;fill:none;stroke-width:0.264583"
       d="m 20.453443,35.40479 c 0.279092,0.199353 0.62302,0.330234 0.837275,0.598053 0.328105,0.410131 0.119611,1.525929 0.119611,2.033384 0,0.126082 0.03046,0.447985 0.119611,0.358833 0.02819,-0.02819 -0.02819,-0.09142 0,-0.11961 0.10165,-0.10165 0.250646,-0.14456 0.358832,-0.239223 0.799796,-0.69982 1.520781,-1.52078 2.272605,-2.272604 0.126081,-0.126082 0.398703,-0.398703 0.478443,-0.239223 0.199401,0.398804 -0.07283,1.12328 0.239222,1.43533"
       id="path432" /><path
       style="display:none;fill:#000000;stroke-width:0.264583"
       d="M 30.620358,42.342215 24.998653,35.40479"
       id="path434" /><path
       style="display:none;fill:#000000;stroke-width:0.264583"
       d="M 37.916617,39.351947 20.453443,37.07934"
       id="path436" /><circle
       id="path514"
       style="display:none;fill:#000000;stroke:#000000;stroke-width:0.264583"
       cx="41.561676"
       cy="27.483429"
       r="0.0074709514" /><path
       style="display:none;fill:#000000;stroke-width:0.243329"
       d="m -6.91139,30.147334 h 49.682538 l -1.450506,6.400329 -1.309635,3.389783 -3.943058,0.776994 -3.680189,-3.107973 -1.051482,-4.195763 -0.657176,-3.107973 -1.971529,-6.992938 -2.891577,-3.884965 -4.074493,0.621594 -2.102966,3.41877 -0.920046,4.195762 -1.051483,4.351163 -1.840091,5.438952 L 12.672468,40.71444 8.0722338,38.849657 5.8378337,32.478313 4.7863514,28.593346 2.8148225,22.222003 -0.86536674,18.958632 -3.3626371,20.201821 -6.3856487,26.262367 Z"
       id="path728"
       clip-path="url(#clipPath1266)" /><path
       style="display:inline;fill:#000000;stroke-width:0.264583"
       d="m 42.417348,194.44819 v -66.01354 h 44.05313 44.053112 v 66.01354 66.01354 H 86.470478 42.417348 Z m 87.841662,0 V 128.69923 H 86.470478 42.681938 v 65.74896 65.74896 h 43.78854 43.788532 z M 59.842998,182.46981 c -4.57378,-0.0707 -4.67022,-0.0839 -4.82503,-0.66146 -0.0869,-0.32413 -0.1596,-5.49363 -0.16159,-11.48777 -0.003,-7.94071 0.0791,-10.94956 0.30111,-11.08678 0.1676,-0.10358 0.47799,0.0382 0.68976,0.31511 0.32655,0.42699 0.36458,1.96016 0.25038,10.09459 -0.0741,5.27513 -0.057,9.58906 0.0379,9.58652 0.0949,-0.003 2.42607,-4.41972 5.18043,-9.81592 2.75436,-5.39621 5.17624,-9.87588 5.38195,-9.95482 0.23313,-0.0895 1.4368,0.91596 3.19544,2.66915 l 2.82142,2.81267 10.83455,0.0692 c 10.83454,0.0692 10.83454,0.0692 11.56419,2.22068 0.4013,1.18333 1.16331,2.89145 1.69334,3.79582 0.53004,0.90437 1.65595,2.31957 2.50202,3.14489 0.846072,0.82532 2.292162,1.9472 3.213522,2.49307 0.92137,0.54586 2.62771,1.36254 3.79188,1.81483 1.16417,0.4523 3.47957,1.10104 5.14533,1.44166 1.66576,0.34061 4.2256,0.68982 5.68854,0.77603 1.46293,0.0862 2.92777,0.21137 3.25519,0.27815 0.42477,0.0866 0.59532,0.30947 0.59532,0.77783 0,0.65642 0,0.65642 -4.0349,0.68531 -2.21919,0.0159 -14.92911,0.0457 -28.244262,0.0662 -13.31516,0.0205 -26.30956,0.005 -28.87644,-0.0349 z m 50.889862,-1.15777 c -0.10192,-0.0944 -1.12531,-0.42617 -2.2742,-0.73733 -1.14889,-0.31116 -2.97534,-0.97531 -4.05878,-1.47589 -1.08344,-0.50058 -2.71167,-1.43947 -3.61828,-2.08641 -0.906622,-0.64695 -2.320712,-1.90246 -3.142442,-2.79001 -0.98721,-1.06631 -1.8905,-2.44202 -2.66277,-4.05543 -0.6428,-1.34293 -1.299,-2.76912 -1.45822,-3.1693 -0.28948,-0.7276 -0.28948,-0.7276 -10.81756,-0.7276 -10.52808,0 -10.52808,0 -13.02718,-2.50953 -1.4119,-1.4178 -2.59896,-2.40967 -2.72866,-2.27997 -0.12626,0.12625 -2.4749,4.61198 -5.2192,9.96827 -2.7443,5.35629 -4.94837,9.80532 -4.89793,9.88674 0.0504,0.0814 12.24144,0.14803 27.09112,0.14803 14.84967,0 26.916022,-0.0772 26.814102,-0.17157 z"
       id="path349"
       clip-path="url(#clipPath1262)"
       transform="matrix(0.84579438,0,0,1,-44.593005,-141.83033)" /><path
       style="display:inline;fill:#000000;stroke-width:0.292464"
       d="m 335.18388,73.737962 c -1.68793,0.753829 -2.19242,2.93909 -3.21596,4.362963 -11.94198,22.629895 -23.56483,45.432535 -34.81435,68.414485 -0.40262,1.03074 -1.96867,3.07509 -0.0945,3.52071 25.66633,0.68457 51.3486,0.34175 77.0219,0.43152 40.90933,-0.0736 81.82101,0.004 122.72847,-0.36754 1.17514,-0.21505 4.38162,0.37081 3.50433,-1.67696 -5.56794,-2.23815 -11.60167,-3.38401 -17.16215,-5.68832 -11.24438,-4.31282 -21.97633,-10.56466 -30.25685,-19.47454 -5.17727,-5.20406 -9.08301,-11.48961 -12.10698,-18.14604 -2.00548,-3.72425 -3.26529,-7.856387 -5.57736,-11.401355 -2.25329,-2.261164 -5.8541,-1.514872 -8.73938,-1.803828 -21.1859,-0.521051 -42.38302,-0.221684 -63.56025,-0.908886 -4.55059,-0.292394 -9.44667,-1.397555 -12.88019,-4.752524 -4.76215,-4.017121 -8.82788,-8.913485 -14.05731,-12.345174 -0.24582,-0.112421 -0.5169,-0.18887 -0.78942,-0.164511 z"
       id="path815"
       transform="matrix(0.22378309,0,0,0.26458333,-62.923342,0)"
       clip-path="url(#clipPath1258)" /></g></svg>
